<svg width="0" height="0" class="hidden">
  <symbol version="1.1" id="calendar-svgrepo-com" xmlns="http://www.w3.org/2000/svg" xmlns:xlink="http://www.w3.org/1999/xlink" x="0px" y="0px" xml:space="preserve" viewBox="0 0 289.48 289.48">
    <g>
      <g>
        <g>
          <path d="M273.74,21.48h-32.52V5c0-2.761-2.239-5-5-5h-42.96c-2.761,0-5,2.239-5,5v16.48h-87.04V5c0-2.761-2.239-5-5-5H53.26
				c-2.761,0-5,2.239-5,5v16.48H15.74c-8.271,0-15,6.729-15,15v57v181c0,8.271,6.729,15,15,15h258c8.271,0,15-6.729,15-15v-181v-57
				C288.74,28.209,282.011,21.48,273.74,21.48z M198.26,26.48V10h32.96v16.48v16.48h-32.96V26.48z M58.26,26.48V10h32.96v16.48
				v16.48H58.26V26.48z M278.74,274.48c0,2.757-2.243,5-5,5h-258c-2.757,0-5-2.243-5-5v-176h268V274.48z M278.74,88.48h-268v-52
				c0-2.757,2.243-5,5-5h32.52v16.48c0,2.761,2.239,5,5,5h42.96c2.761,0,5-2.239,5-5V31.48h87.04v16.48c0,2.761,2.239,5,5,5h42.96
				c2.761,0,5-2.239,5-5V31.48h32.52c2.757,0,5,2.243,5,5V88.48z"></path>
          <path d="M39.031,174.689h28.418c2.761,0,5-2.239,5-5v-28.418c0-2.761-2.239-5-5-5H39.031c-2.761,0-5,2.239-5,5v28.418
				C34.031,172.45,36.27,174.689,39.031,174.689z"></path>
          <path d="M100.031,174.689h28.418c2.761,0,5-2.239,5-5v-28.418c0-2.761-2.239-5-5-5h-28.418c-2.761,0-5,2.239-5,5v28.418
				C95.031,172.45,97.27,174.689,100.031,174.689z"></path>
          <path d="M161.031,174.689h28.418c2.761,0,5-2.239,5-5v-28.418c0-2.761-2.239-5-5-5h-28.418c-2.761,0-5,2.239-5,5v28.418
				C156.031,172.45,158.27,174.689,161.031,174.689z"></path>
          <path d="M222.031,174.689h28.418c2.761,0,5-2.239,5-5v-28.418c0-2.761-2.239-5-5-5h-28.418c-2.761,0-5,2.239-5,5v28.418
				C217.031,172.45,219.27,174.689,222.031,174.689z"></path>
          <path d="M39.031,235.356h28.418c2.761,0,5-2.239,5-5v-28.418c0-2.761-2.239-5-5-5H39.031c-2.761,0-5,2.239-5,5v28.418
				C34.031,233.117,36.27,235.356,39.031,235.356z"></path>
          <path d="M100.031,235.356h28.418c2.761,0,5-2.239,5-5v-28.418c0-2.761-2.239-5-5-5h-28.418c-2.761,0-5,2.239-5,5v28.418
				C95.031,233.117,97.27,235.356,100.031,235.356z"></path>
          <path d="M161.031,235.356h28.418c2.761,0,5-2.239,5-5v-28.418c0-2.761-2.239-5-5-5h-28.418c-2.761,0-5,2.239-5,5v28.418
				C156.031,233.117,158.27,235.356,161.031,235.356z"></path>
          <path d="M222.031,235.356h28.418c2.761,0,5-2.239,5-5v-28.418c0-2.761-2.239-5-5-5h-28.418c-2.761,0-5,2.239-5,5v28.418
				C217.031,233.117,219.27,235.356,222.031,235.356z"></path>
        </g>
      </g>
    </g>
    <g></g>
    <g></g>
    <g></g>
    <g></g>
    <g></g>
    <g></g>
    <g></g>
    <g></g>
    <g></g>
    <g></g>
    <g></g>
    <g></g>
    <g></g>
    <g></g>
    <g></g>
  </symbol>
  <symbol version="1.1" id="home-svgrepo-com" xmlns="http://www.w3.org/2000/svg" xmlns:xlink="http://www.w3.org/1999/xlink" x="0px" y="0px" xml:space="preserve" viewBox="0 0 512 512">
    <g>
      <g>
        <path d="M505.017,218.881L272.571,7.567l-2.221-2.019c-1.526-1.387-3.202-2.514-4.973-3.381c-0.079-0.038-0.161-0.066-0.24-0.104
			c-5.772-2.738-12.503-2.738-18.276,0c-0.079,0.037-0.161,0.065-0.24,0.104c-1.771,0.867-3.447,1.994-4.973,3.381l-2.189,1.99
			L6.983,218.881c-8.718,7.925-9.361,21.418-1.435,30.136c7.925,8.718,21.418,9.361,30.136,1.435l6.983-6.348v246.563
			C42.667,502.449,52.218,512,64,512h106.667h170.667H448c11.782,0,21.333-9.551,21.333-21.333V244.104l6.983,6.348
			c8.718,7.926,22.21,7.283,30.136-1.435C514.378,240.299,513.735,226.807,505.017,218.881z M213.333,469.334v-128
			c0-23.567,19.099-42.667,42.667-42.667s42.667,19.099,42.667,42.667v128H213.333z M426.667,469.334h-85.333v-128
			C341.334,294.202,303.132,256,256,256s-85.333,38.202-85.333,85.333v128H85.333V205.32L256,50.165L426.667,205.32V469.334z"></path>
      </g>
    </g>
    <g></g>
    <g></g>
    <g></g>
    <g></g>
    <g></g>
    <g></g>
    <g></g>
    <g></g>
    <g></g>
    <g></g>
    <g></g>
    <g></g>
    <g></g>
    <g></g>
    <g></g>
  </symbol>
  <symbol version="1.1" id="message-svgrepo-com" xmlns="http://www.w3.org/2000/svg" xmlns:xlink="http://www.w3.org/1999/xlink" x="0px" y="0px" xml:space="preserve" viewBox="0 0 458 458">
    <g>
      <g>
        <g>
          <path d="M428,41.533H30c-16.568,0-30,13.432-30,30v252c0,16.568,13.432,30,30,30h132.1l43.942,52.243
				c5.7,6.777,14.103,10.69,22.959,10.69c8.856,0,17.259-3.912,22.959-10.689l43.942-52.243H428c16.569,0,30-13.432,30-30v-252
				C458,54.965,444.569,41.533,428,41.533z M428,323.533H281.933L229,386.465l-52.932-62.932H30v-252h398V323.533z"></path>
          <path d="M85.402,156.999h137c8.284,0,15-6.716,15-15s-6.716-15-15-15h-137c-8.284,0-15,6.716-15,15
				S77.118,156.999,85.402,156.999z"></path>
          <path d="M71,233.999c0,8.284,6.716,15,15,15h286c8.284,0,15-6.716,15-15s-6.716-15-15-15H86
				C77.716,218.999,71,225.715,71,233.999z"></path>
        </g>
      </g>
    </g>
    <g></g>
    <g></g>
    <g></g>
    <g></g>
    <g></g>
    <g></g>
    <g></g>
    <g></g>
    <g></g>
    <g></g>
    <g></g>
    <g></g>
    <g></g>
    <g></g>
    <g></g>
  </symbol>
  <symbol xmlns="http://www.w3.org/2000/svg" viewBox="0 0 24 24" id="people-svgrepo-com">
    <path fill-rule="evenodd" d="M3.5 8a5.5 5.5 0 118.596 4.547 9.005 9.005 0 015.9 8.18.75.75 0 01-1.5.045 7.5 7.5 0 00-14.993 0 .75.75 0 01-1.499-.044 9.005 9.005 0 015.9-8.181A5.494 5.494 0 013.5 8zM9 4a4 4 0 100 8 4 4 0 000-8z"></path>
    <path d="M17.29 8c-.148 0-.292.01-.434.03a.75.75 0 11-.212-1.484 4.53 4.53 0 013.38 8.097 6.69 6.69 0 013.956 6.107.75.75 0 01-1.5 0 5.193 5.193 0 00-3.696-4.972l-.534-.16v-1.676l.41-.209A3.03 3.03 0 0017.29 8z"></path>
  </symbol>
  <symbol version="1.1" id="settings-svgrepo-com" xmlns="http://www.w3.org/2000/svg" xmlns:xlink="http://www.w3.org/1999/xlink" x="0px" y="0px" xml:space="preserve" viewBox="0 0 489.8 489.8">
    <g>
      <g>
        <g>
          <path d="M469.1,182.95h-38.2c-3.1-8.3-6.2-16.6-10.3-23.8l26.9-26.9c8.3-8.2,8.3-20.6,0-28.9l-60-60c-8.2-8.3-20.6-8.3-28.9,0
				l-27.9,27.9c-7.2-3.1-15.5-6.2-22.7-9.3v-39.3c0-11.4-9.3-20.7-20.7-20.7h-84.8c-11.4,0-20.7,9.3-20.7,20.7v37.1
				c-8.2,3.1-15.5,6.2-22.7,9.3l-27.9-27.9c-8.2-8.3-20.6-8.3-28.9,0l-60,60c-8.3,8.2-8.3,20.6,0,28.9l26.9,26.9
				c-4.1,8.3-7.2,15.5-10.3,23.8H20.7c-11.4,0-20.7,9.3-20.7,20.7v84.8c0,11.4,9.3,20.7,20.7,20.7h35.1c3.1,8.3,6.2,16.5,10.3,24.8
				l-25.8,25.8c-4.1,4.1-11.6,16.3,0,28.9l60,60c8.2,8.3,20.6,8.3,28.9,0l24.8-24.8c8.2,5.2,16.5,8.3,25.8,11.4v34.1
				c0,11.4,9.3,20.7,20.7,20.7h84.8c11.4,0,20.7-9.3,19.7-18.5v-34.1c8.2-3.1,17.5-7.3,25.8-11.4l24.8,24.8c8.2,8.3,20.6,8.3,28.9,0
				l60-60c8.3-8.2,8.3-20.6,0-28.9l-25.8-25.8c4.1-8.3,7.2-16.5,10.3-24.8h40.1c11.4,0,20.7-9.3,20.7-20.7v-84.8
				C489.8,192.25,480.5,182.95,469.1,182.95z M445.6,266.75h-31c-9.3,0-17.5,6.2-19.6,15.5c-4.2,15.5-9.3,30-17.6,43.4
				c-5.2,8.3-3.1,18.6,3.1,24.8l21.7,21.7l-31,31l-20.7-20.7c-6.2-7.2-16.5-8.3-24.8-3.1c-14.5,8.3-29,14.5-44.5,18.6
				c-9.3,2-15.5,10.3-15.5,19.6v30h-44.5v-0.1h-1v-30c0-9.3-6.2-17.5-15.5-19.6c-15.6-4.1-31.1-10.3-44.5-18.6
				c-8.3-5.2-18.6-3.1-24.8,3.1l-20.7,20.7l-31-31l21.7-21.7c6.2-7.2,8.3-16.5,3.1-24.8c-8.3-13.4-14.5-27.9-17.6-43.4
				c-2-9.3-10.3-15.5-19.6-15.5h-31v-44.5h33.1c9.3,0,17.5-6.2,19.6-15.5c3.1-14.5,9.3-28,17.6-41.4c5.2-8.3,3.1-18.6-3.1-24.8
				l-23.8-23.8l31-31l23.8,23.8c7.2,6.2,16.5,8.3,24.8,3.1c13.5-7.2,26.9-13.4,41.4-16.5c9.3-2,15.5-10.3,15.5-19.6v-34.1h44.5v35.2
				c0,9.3,6.2,17.5,15.5,19.6c14.5,3.1,29,9.3,41.4,16.5c8.3,5.2,18.6,3.1,24.8-3.1l24.8-24.8l31,31l-23.8,23.8
				c-7.2,6.2-8.3,16.5-3.1,24.8c7.3,12.5,13.5,26.9,17.6,41.4c2,9.3,10.3,15.5,19.6,15.5h33.1V266.75z"></path>
          <path d="M242.9,132.25c-62,0-112.7,50.7-112.7,112.7s50.7,112.7,112.7,112.7c62.1,0,112.7-50.7,112.7-112.7
				S304.9,132.25,242.9,132.25z M242.9,317.35c-39.3,0-72.4-32.1-72.4-72.4c0-39.3,32.1-72.4,72.4-72.4c40.3,0,72.4,32.1,72.4,72.4
				C315.3,284.25,282.2,317.35,242.9,317.35z"></path>
        </g>
      </g>
    </g>
    <g></g>
    <g></g>
    <g></g>
    <g></g>
    <g></g>
    <g></g>
    <g></g>
    <g></g>
    <g></g>
    <g></g>
    <g></g>
    <g></g>
    <g></g>
    <g></g>
    <g></g>
  </symbol>
  <symbol id="workspace-svgrepo-com" xmlns="http://www.w3.org/2000/svg" viewBox="0 0 32 32">
    <defs></defs>
    <title>workspace</title>
    <path d="M16,17v8H6V17H16m0-2H6a2,2,0,0,0-2,2v8a2,2,0,0,0,2,2H16a2,2,0,0,0,2-2V17a2,2,0,0,0-2-2Z"></path>
    <path d="M27,6v5H17V6H27m0-2H17a2,2,0,0,0-2,2v5a2,2,0,0,0,2,2H27a2,2,0,0,0,2-2V6a2,2,0,0,0-2-2Z"></path>
    <path d="M27,17v5H22V17h5m0-2H22a2,2,0,0,0-2,2v5a2,2,0,0,0,2,2h5a2,2,0,0,0,2-2V17a2,2,0,0,0-2-2Z"></path>
    <path d="M11,6v5H6V6h5m0-2H6A2,2,0,0,0,4,6v5a2,2,0,0,0,2,2h5a2,2,0,0,0,2-2V6a2,2,0,0,0-2-2Z"></path>
    <!-- <g id="_Rectangle_">
      <rect width="32" height="32"></rect>
    </g> -->
  </symbol>
  <symbol version="1.1" id="bar-chart-svgrepo-com" xmlns="http://www.w3.org/2000/svg" xmlns:xlink="http://www.w3.org/1999/xlink" x="0px" y="0px" xml:space="preserve" viewBox="0 0 490 490">
    <g>
      <g>
        <rect y="162.2" width="117.8" height="327.8"></rect>
        <rect x="186.3" width="117.8" height="490"></rect>
        <rect x="372.2" y="82.4" width="117.8" height="407.6"></rect>
      </g>
    </g>
    <g></g>
    <g></g>
    <g></g>
    <g></g>
    <g></g>
    <g></g>
    <g></g>
    <g></g>
    <g></g>
    <g></g>
    <g></g>
    <g></g>
    <g></g>
    <g></g>
    <g></g>
  </symbol>
</svg>